<svg width="64" height="64" viewBox="0 0 64 64" fill="none" xmlns="http://www.w3.org/2000/svg">
  <rect width="64" height="64" rx="18" fill="#050816"/>
  <path d="M46 24C43.5 19.5 39 16 31.8 16C22.6 16 16 22.4 16 32C16 41.6 22.4 48 32 48C39.4 48 44.2 44.1 46.6 38.4H37.6C36.2 40.1 34.2 41 31.8 41C27.1 41 23.8 37.6 23.8 32C23.8 26.4 27 23 31.8 23C34.3 23 36.4 23.9 37.8 25.6H46Z" fill="url(#paint0_linear_1_3)"/>
  <circle cx="47" cy="32" r="5" fill="#2DD4BF"/>
  <defs>
    <linearGradient id="paint0_linear_1_3" x1="16" y1="16" x2="49" y2="48" gradientUnits="userSpaceOnUse">
      <stop stop-color="#38BDF8"/>
      <stop offset="1" stop-color="#2563EB"/>
    </linearGradient>
  </defs>
</svg>
